# xmcd
#
# Track frame offsets: 
#        150
#        22445
#        34499
#        59390
#        74295
#        101243
#        134643
#        160180
#        188082
#        201078
#        223273
#
# Disc length: 3256 seconds
#
# Revision: 0
# Processed by: cddbd v1.5.2PL0 Copyright (c) Steve Scherf et al.
# Submitted via: ExactAudioCopy v1.0b4
#
DISCID=b40cb60b
DTITLE=Frogleg - Busy Checking In
DYEAR=2017
DGENRE=Acid Jazz
TTITLE0=Last Glass Fall
TTITLE1=Homestead
TTITLE2=Up In The Blue
TTITLE3=Tommy and Isabelle
TTITLE4=First Thunder, First Rain
TTITLE5=Busy Checking In
TTITLE6=Persephone
TTITLE7=Mash Pierre
TTITLE8=Johnny Law
TTITLE9=In The Dust
TTITLE10=Longing
EXTD=
EXTT0=
EXTT1=
EXTT2=
EXTT3=
EXTT4=
EXTT5=
EXTT6=
EXTT7=
EXTT8=
EXTT9=
EXTT10=
PLAYORDER=
